<svg width="24" height="24" viewBox="0 0 24 24" fill="none" xmlns="http://www.w3.org/2000/svg">
<path fill-rule="evenodd" clip-rule="evenodd" d="M12.4087 6.75859C12.3877 6.74714 12.3623 6.74714 12.3413 6.75859L7.53591 9.38244C7.51375 9.39454 7.5 9.41756 7.5 9.44254V10.5182C7.5 10.5562 7.53118 10.5869 7.56964 10.5869H12.375H17.1804C17.2188 10.5869 17.25 10.5562 17.25 10.5182V9.44254C17.25 9.41756 17.2362 9.39454 17.2141 9.38244L12.4087 6.75859ZM13.0714 8.93831C13.0714 9.31768 12.7596 9.62523 12.375 9.62523C11.9904 9.62523 11.6786 9.31768 11.6786 8.93831C11.6786 8.55894 11.9904 8.25139 12.375 8.25139C12.7596 8.25139 13.0714 8.55894 13.0714 8.93831ZM8.19643 10.9991C8.19643 10.9611 8.22761 10.9304 8.26607 10.9304H10.3554C10.3938 10.9304 10.425 10.9611 10.425 10.9991V11.5486C10.425 11.5865 10.3938 11.6173 10.3554 11.6173H10.1464C10.108 11.6173 10.0768 11.648 10.0768 11.686V15.0519C10.0768 15.0898 10.108 15.1206 10.1464 15.1206H10.3554C10.3938 15.1206 10.425 15.1513 10.425 15.1892V15.7388C10.425 15.7767 10.3938 15.8075 10.3554 15.8075H8.26607C8.22761 15.8075 8.19643 15.7767 8.19643 15.7388V15.1892C8.19643 15.1513 8.22761 15.1206 8.26607 15.1206H8.475C8.51346 15.1206 8.54464 15.0898 8.54464 15.0519V11.686C8.54464 11.648 8.51346 11.6173 8.475 11.6173H8.26607C8.22761 11.6173 8.19643 11.5865 8.19643 11.5486V10.9991ZM7.56964 17.25C7.53118 17.25 7.5 17.2192 7.5 17.1813V16.2196C7.5 16.1817 7.53118 16.1509 7.56964 16.1509H17.1804C17.2188 16.1509 17.25 16.1817 17.25 16.2196V17.1813C17.25 17.2192 17.2188 17.25 17.1804 17.25H7.56964ZM13.4196 11.6173C13.4581 11.6173 13.4893 11.5865 13.4893 11.5486V10.9991C13.4893 10.9611 13.4581 10.9304 13.4196 10.9304H11.3304C11.2919 10.9304 11.2607 10.9611 11.2607 10.9991V11.5486C11.2607 11.5865 11.2919 11.6173 11.3304 11.6173H11.5393C11.5777 11.6173 11.6089 11.648 11.6089 11.686V15.0519C11.6089 15.0898 11.5777 15.1206 11.5393 15.1206H11.3304C11.2919 15.1206 11.2607 15.1513 11.2607 15.1892V15.7388C11.2607 15.7767 11.2919 15.8075 11.3304 15.8075H13.4196C13.4581 15.8075 13.4893 15.7767 13.4893 15.7388V15.1892C13.4893 15.1513 13.4581 15.1206 13.4196 15.1206H13.2107C13.1723 15.1206 13.1411 15.0898 13.1411 15.0519V11.686C13.1411 11.648 13.1723 11.6173 13.2107 11.6173H13.4196ZM14.325 10.9991C14.325 10.9611 14.3562 10.9304 14.3946 10.9304H16.4839C16.5224 10.9304 16.5536 10.9611 16.5536 10.9991V11.5486C16.5536 11.5865 16.5224 11.6173 16.4839 11.6173H16.275C16.2365 11.6173 16.2054 11.648 16.2054 11.686V15.0519C16.2054 15.0898 16.2365 15.1206 16.275 15.1206H16.4839C16.5224 15.1206 16.5536 15.1513 16.5536 15.1892V15.7388C16.5536 15.7767 16.5224 15.8075 16.4839 15.8075H14.3946C14.3562 15.8075 14.325 15.7767 14.325 15.7388V15.1892C14.325 15.1513 14.3562 15.1206 14.3946 15.1206H14.6036C14.642 15.1206 14.6732 15.0898 14.6732 15.0519V11.686C14.6732 11.648 14.642 11.6173 14.6036 11.6173H14.3946C14.3562 11.6173 14.325 11.5865 14.325 11.5486V10.9991Z" fill="#BAC7D2"/>
</svg>
