<svg width="24" height="24" viewBox="0 0 24 24" fill="none" xmlns="http://www.w3.org/2000/svg">
<path fill-rule="evenodd" clip-rule="evenodd" d="M12.2195 6.07317C12.2195 6.03276 12.2523 6 12.2927 6H13.0244C13.0648 6 13.0976 6.03276 13.0976 6.07317V7.17073C13.0976 7.21114 13.1303 7.2439 13.1707 7.2439H13.8293C13.8697 7.2439 13.9024 7.27666 13.9024 7.31707V8.78049C13.9024 8.8209 13.9352 8.85366 13.9756 8.85366H14.6341C14.6746 8.85366 14.7073 8.88642 14.7073 8.92683V13.2439C14.7073 13.2843 14.6746 13.3171 14.6341 13.3171H12.8049C12.7645 13.3171 12.7317 13.3498 12.7317 13.3902V17.122C12.7317 17.1624 12.7645 17.1951 12.8049 17.1951H12.878C12.9185 17.1951 12.9512 17.1624 12.9512 17.122V13.6098C12.9512 13.5693 12.984 13.5366 13.0244 13.5366H16.9024C16.9429 13.5366 16.9756 13.5693 16.9756 13.6098V17.122C16.9756 17.1624 17.0084 17.1951 17.0488 17.1951H17.7805C17.8209 17.1951 17.8537 17.2279 17.8537 17.2683V17.9268C17.8537 17.9672 17.8209 18 17.7805 18H6.07317C6.03276 18 6 17.9672 6 17.9268V17.2683C6 17.2279 6.03276 17.1951 6.07317 17.1951H6.80488C6.84529 17.1951 6.87805 17.1624 6.87805 17.122V10.4634C6.87805 10.423 6.91081 10.3902 6.95122 10.3902H9.87805C9.91846 10.3902 9.95122 10.423 9.95122 10.4634V17.122C9.95122 17.1624 9.98398 17.1951 10.0244 17.1951H10.6098C10.6502 17.1951 10.6829 17.1624 10.6829 17.122V8.92683C10.6829 8.88642 10.7157 8.85366 10.7561 8.85366H11.3415C11.3819 8.85366 11.4146 8.8209 11.4146 8.78049V7.31707C11.4146 7.27666 11.4474 7.2439 11.4878 7.2439H12.1463C12.1868 7.2439 12.2195 7.21114 12.2195 7.17073V6.07317ZM16.0976 17.1951C16.138 17.1951 16.1707 17.1624 16.1707 17.122V14.4878C16.1707 14.4474 16.138 14.4146 16.0976 14.4146H15.439C15.3986 14.4146 15.3659 14.4474 15.3659 14.4878V17.122C15.3659 17.1624 15.3986 17.1951 15.439 17.1951H16.0976ZM14.561 17.1951C14.6014 17.1951 14.6341 17.1624 14.6341 17.122V14.4878C14.6341 14.4474 14.6014 14.4146 14.561 14.4146H13.9024C13.862 14.4146 13.8293 14.4474 13.8293 14.4878V17.122C13.8293 17.1624 13.862 17.1951 13.9024 17.1951H14.561ZM12.2927 9.80488C12.2927 9.76447 12.2599 9.73171 12.2195 9.73171H11.561C11.5206 9.73171 11.4878 9.76447 11.4878 9.80488V10.3902C11.4878 10.4307 11.5206 10.4634 11.561 10.4634H12.2195C12.2599 10.4634 12.2927 10.4307 12.2927 10.3902V9.80488ZM11.4878 11.3415C11.4878 11.3011 11.5206 11.2683 11.561 11.2683H12.2195C12.2599 11.2683 12.2927 11.3011 12.2927 11.3415V11.9268C12.2927 11.9672 12.2599 12 12.2195 12H11.561C11.5206 12 11.4878 11.9672 11.4878 11.9268V11.3415ZM13.8293 9.80488C13.8293 9.76447 13.7965 9.73171 13.7561 9.73171H13.0976C13.0571 9.73171 13.0244 9.76447 13.0244 9.80488V10.3902C13.0244 10.4307 13.0571 10.4634 13.0976 10.4634H13.7561C13.7965 10.4634 13.8293 10.4307 13.8293 10.3902V9.80488ZM13.0244 11.3415C13.0244 11.3011 13.0571 11.2683 13.0976 11.2683H13.7561C13.7965 11.2683 13.8293 11.3011 13.8293 11.3415V11.9268C13.8293 11.9672 13.7965 12 13.7561 12H13.0976C13.0571 12 13.0244 11.9672 13.0244 11.9268V11.3415ZM8.78049 11.3415C8.78049 11.3011 8.74773 11.2683 8.70732 11.2683H8.12195C8.08154 11.2683 8.04878 11.3011 8.04878 11.3415V11.9268C8.04878 11.9672 8.08154 12 8.12195 12H8.70732C8.74773 12 8.78049 11.9672 8.78049 11.9268V11.3415ZM8.04878 14.4146C8.04878 14.3742 8.08154 14.3415 8.12195 14.3415H8.70732C8.74773 14.3415 8.78049 14.3742 8.78049 14.4146V15.0732C8.78049 15.1136 8.74773 15.1463 8.70732 15.1463H8.12195C8.08154 15.1463 8.04878 15.1136 8.04878 15.0732V14.4146ZM8.78049 12.878C8.78049 12.8376 8.74773 12.8049 8.70732 12.8049H8.12195C8.08154 12.8049 8.04878 12.8376 8.04878 12.878V13.5366C8.04878 13.577 8.08154 13.6098 8.12195 13.6098H8.70732C8.74773 13.6098 8.78049 13.577 8.78049 13.5366V12.878ZM8.04878 15.9512C8.04878 15.9108 8.08154 15.878 8.12195 15.878H8.70732C8.74773 15.878 8.78049 15.9108 8.78049 15.9512V16.6098C8.78049 16.6502 8.74773 16.6829 8.70732 16.6829H8.12195C8.08154 16.6829 8.04878 16.6502 8.04878 16.6098V15.9512Z" fill="#BAC7D2"/>
</svg>
