<svg width="12" height="24" viewBox="0 0 12 9" fill="none" xmlns="http://www.w3.org/2000/svg">
<path fill-rule="evenodd" clip-rule="evenodd" d="M0.114787 7.33404C0.222761 7.61748 0.892197 8.15194 2.70615 8.02238C3.30565 7.97955 3.7608 7.9056 4.2003 7.83418C5.42313 7.63549 6.52492 7.45646 10.2778 8.02238C11.4115 8.02238 11.8029 7.64447 11.8569 7.45551C11.9649 7.34754 12.1161 6.92914 11.8569 6.11934C11.8569 6.15983 11.0471 5.67395 11.0471 5.51199C11.0471 5.38242 11.641 5.458 11.9379 5.51199C12.0324 5.0666 12.027 4.03815 11.2496 3.48748C11.2091 3.52797 10.3993 3.56846 10.2778 3.32552C10.1806 3.13117 10.6962 3.16356 10.9661 3.20405C10.9931 2.78566 10.7313 1.91647 9.468 1.7869C9.50039 1.85169 9.13058 2.13782 8.94163 2.27278L9.26555 1.46298C9.11709 1.03109 8.53673 0.280669 7.40301 0.734158C7.40301 0.831334 7.34902 1.26053 7.32203 1.46298L6.91713 0.450727C6.63369 0.27527 5.88868 0.0539242 5.17605 0.572198C5.32451 0.801641 5.60525 1.30102 5.54046 1.46298C5.47568 1.62494 4.94661 0.936609 4.69017 0.572198C4.37975 0.504714 3.58074 0.588393 2.86811 1.46298C2.84868 1.50185 2.96915 1.56869 3.0997 1.64113C3.24117 1.71963 3.39449 1.80471 3.39449 1.86788C3.39449 1.92542 3.23096 1.85577 3.0416 1.77512C2.83121 1.68551 2.58895 1.58232 2.5037 1.62494C2.46335 1.62494 1.37742 1.70537 1.24979 3.10863C1.24636 3.11023 1.24579 3.11492 1.24851 3.12308C1.24892 3.11825 1.24935 3.11343 1.24979 3.10863C1.29738 3.08644 1.89635 3.66033 1.89635 3.81141C1.89635 3.94098 1.24851 3.54147 0.924589 3.32552C0.425211 3.59546 -0.411584 4.43495 0.236257 5.63346C0.248931 5.6398 0.262597 5.64911 0.278807 5.66016C0.366169 5.71969 0.527427 5.82958 1.00557 5.79542C0.984926 5.84703 0.887976 5.90127 0.762343 5.97156C0.395148 6.17699 -0.217065 6.5195 0.114787 7.33404ZM2.81686 4.96159C4.20801 3.12704 7.12499 1.68448 9.57145 5.37044C9.62417 5.44987 9.53036 5.52497 9.46476 5.4558L9.44443 5.43437C8.29931 4.22685 7.77251 3.67134 6.14781 3.77092C5.22495 3.82748 3.97745 4.12496 2.94439 5.05824C2.87121 5.12435 2.75728 5.04017 2.81686 4.96159Z" fill="#BAC7D2"/>
</svg>
