<svg width="24" height="24" viewBox="0 0 24 24" fill="none" xmlns="http://www.w3.org/2000/svg">
<path fill-rule="evenodd" clip-rule="evenodd" d="M6.11479 15.334C6.22276 15.6175 6.8922 16.1519 8.70615 16.0224C9.30565 15.9796 9.7608 15.9056 10.2003 15.8342C11.4231 15.6355 12.5249 15.4565 16.2778 16.0224C17.4115 16.0224 17.8029 15.6445 17.8569 15.4555C17.9649 15.3475 18.1161 14.9291 17.8569 14.1193C17.8569 14.1598 17.0471 13.6739 17.0471 13.512C17.0471 13.3824 17.641 13.458 17.9379 13.512C18.0324 13.0666 18.027 12.0382 17.2496 11.4875C17.2091 11.528 16.3993 11.5685 16.2778 11.3255C16.1806 11.1312 16.6962 11.1636 16.9661 11.2041C16.9931 10.7857 16.7313 9.91647 15.468 9.7869C15.5004 9.85169 15.1306 10.1378 14.9416 10.2728L15.2656 9.46298C15.1171 9.03109 14.5367 8.28067 13.403 8.73416C13.403 8.83133 13.349 9.26053 13.322 9.46298L12.9171 8.45073C12.6337 8.27527 11.8887 8.05392 11.1761 8.5722C11.3245 8.80164 11.6052 9.30102 11.5405 9.46298C11.4757 9.62494 10.9466 8.93661 10.6902 8.5722C10.3797 8.50471 9.58074 8.58839 8.86811 9.46298C8.84868 9.50185 8.96915 9.56869 9.0997 9.64113C9.24117 9.71963 9.39449 9.80471 9.39449 9.86788C9.39449 9.92542 9.23096 9.85577 9.0416 9.77512C8.83121 9.68551 8.58895 9.58232 8.5037 9.62494C8.46335 9.62494 7.37742 9.70537 7.24979 11.1086C7.24636 11.1102 7.24579 11.1149 7.24851 11.1231C7.24892 11.1182 7.24935 11.1134 7.24979 11.1086C7.29738 11.0864 7.89635 11.6603 7.89635 11.8114C7.89635 11.941 7.24851 11.5415 6.92459 11.3255C6.42521 11.5955 5.58842 12.435 6.23626 13.6335C6.24893 13.6398 6.2626 13.6491 6.27881 13.6602C6.36617 13.7197 6.52743 13.8296 7.00557 13.7954C6.98493 13.847 6.88798 13.9013 6.76234 13.9716C6.39515 14.177 5.78294 14.5195 6.11479 15.334ZM8.81686 12.9616C10.208 11.127 13.125 9.68448 15.5715 13.3704C15.6242 13.4499 15.5304 13.525 15.4648 13.4558L15.4444 13.4344C14.2993 12.2268 13.7725 11.6713 12.1478 11.7709C11.225 11.8275 9.97745 12.125 8.94439 13.0582C8.87121 13.1243 8.75728 13.0402 8.81686 12.9616Z" fill="#BAC7D2"/>
</svg>
