<svg width="24" height="24" viewBox="0 0 24 24" fill="none" xmlns="http://www.w3.org/2000/svg">
<path fill-rule="evenodd" clip-rule="evenodd" d="M11.9646 8.26654C12.7603 9.2336 13.688 11.3843 14.2799 16.1156L14.2938 16.2273H14.1897H6.1241H6L6.03735 16.0992C6.43317 14.7422 7.18565 12.7298 8.01035 10.9963C8.42267 10.1296 8.85439 9.32986 9.27004 8.71571C9.47785 8.40866 9.68298 8.14601 9.88104 7.94415C10.0779 7.74353 10.2731 7.59738 10.4619 7.53151L10.4621 7.53146C10.4627 7.53122 10.4636 7.53092 10.4646 7.53058C10.4665 7.5299 10.4691 7.52903 10.4723 7.52802C10.4787 7.52601 10.4876 7.52345 10.4987 7.52069C10.5209 7.51517 10.5524 7.50887 10.5921 7.50469C10.6716 7.49631 10.7839 7.49644 10.9211 7.5281C11.1968 7.59171 11.5648 7.78074 11.9646 8.26654ZM16.6023 11.8256C17.2641 13.2765 17.7745 15.0103 17.9782 16.1095L18 16.2273H17.889H14.5233H14.4393L14.4326 16.1368C14.2394 13.5455 13.5667 11.1588 13.2559 10.2932L13.2411 10.2518L13.2599 10.2124C13.493 9.72443 13.7302 9.47197 13.9168 9.34179C14.0099 9.27679 14.0895 9.24299 14.148 9.2255C14.1771 9.21678 14.2009 9.21217 14.2183 9.20974C14.227 9.20853 14.2341 9.20786 14.2395 9.20749C14.2422 9.20731 14.2444 9.20721 14.2463 9.20715L14.2475 9.20711C14.6912 9.18586 15.1184 9.4947 15.5078 9.96572C15.9005 10.4407 16.2715 11.1005 16.6023 11.8256ZM16.0087 11.0551C15.7887 10.6772 15.5542 10.3872 15.5542 10.3872C14.4323 8.9108 13.9168 9.59979 13.4923 10.3891C13.5056 10.4364 13.5216 10.4941 13.5398 10.56C13.6505 10.9041 13.7836 11.363 13.919 11.9051C13.9653 12.0627 14.0108 12.2138 14.0533 12.3488C14.0735 12.4128 14.1563 12.4037 14.1651 12.3368C14.1998 12.0729 14.2239 11.8407 14.2445 11.6435C14.2994 11.1161 14.3282 10.8393 14.4619 10.8767C14.9289 11.2291 16.0376 11.6869 16.201 11.5225C16.2272 11.4962 16.2135 11.4517 16.1977 11.4171C16.1855 11.3904 16.173 11.3638 16.1601 11.3374C16.1102 11.241 16.0598 11.1468 16.0087 11.0551ZM9.58839 11.7646C9.97911 11.5309 10.7687 10.3873 11.1146 9.8448C11.3867 9.37144 11.4623 9.58837 11.689 10.2382L11.6891 10.2382C11.7422 10.3905 11.8036 10.5665 11.8778 10.763C12.2546 11.7613 12.6255 10.9915 12.7517 10.299C12.7607 10.2496 12.7548 10.198 12.7362 10.1518C12.0434 8.42947 11.178 7.63434 10.4601 7.8609C9.78001 8.18339 9.04531 9.53292 8.63691 10.2831L8.63691 10.2831L8.62388 10.307C8.59555 10.3591 8.58418 10.4199 8.59497 10.4791C8.72579 11.1975 9.21582 11.9874 9.58839 11.7646Z" fill="#BAC7D2"/>
</svg>
