<svg width="17" height="21" viewBox="0 0 17 21" fill="none" xmlns="http://www.w3.org/2000/svg">
<path d="M7.42148e-05 7.53293C7.42148e-05 6.62501 0.158785 5.76727 0.471538 4.96672C0.770351 4.18915 1.2143 3.4755 1.77973 2.8638C2.34402 2.26013 2.98975 1.73812 3.69827 1.31287C4.4252 0.873091 5.2122 0.54131 6.03458 0.327929C6.86689 0.109377 7.72393 -0.00084184 8.58446 4.84102e-06C9.91366 4.84102e-06 11.1507 0.28125 12.2978 0.841405C13.43 1.39135 14.3937 2.23531 15.0881 3.28508C15.8046 4.35288 16.1606 5.56071 16.1606 6.90742C16.1606 7.71498 16.0812 8.50503 15.919 9.27758C15.7597 10.0497 15.5065 10.7994 15.1651 11.51C14.8397 12.1979 14.4142 12.8338 13.9024 13.3971C13.3881 13.9513 12.7653 14.3938 12.0726 14.6971C11.3206 15.0267 10.5071 15.1925 9.6861 15.1837C9.11544 15.1837 8.54595 15.0495 7.98346 14.7799C7.42097 14.5115 7.01719 14.1428 6.77445 13.6701C6.68926 13.9981 6.57257 14.4719 6.41736 15.0915C6.26798 15.71 6.16762 16.1091 6.12327 16.29C6.07659 16.4697 5.99024 16.7697 5.8642 17.1851C5.77873 17.4924 5.66908 17.7925 5.53628 18.0825L5.13483 18.8691C4.96122 19.2066 4.76714 19.5332 4.55367 19.847C4.34245 20.1528 4.08104 20.518 3.76945 20.9382L3.59557 21L3.48004 20.874C3.35517 19.5518 3.29099 18.7605 3.29099 18.4991C3.29099 17.7254 3.38318 16.8572 3.56523 15.8932C3.74378 14.9305 4.02619 13.7203 4.40546 12.2651C4.78474 10.811 5.0018 9.9556 5.06015 9.70236C4.7929 9.15738 4.65753 8.44552 4.65753 7.57027C4.65753 6.87125 4.87576 6.21656 5.31338 5.60039C5.75217 4.98656 6.30649 4.67964 6.97868 4.67964C7.49332 4.67964 7.89243 4.85002 8.17834 5.19195C8.46542 5.53271 8.60546 5.96216 8.60546 6.48614C8.60546 7.04163 8.42108 7.84568 8.04998 8.89714C7.67887 9.94977 7.49449 10.7352 7.49449 11.2568C7.49449 11.7854 7.68354 12.2277 8.06164 12.5743C8.43478 12.9211 8.92824 13.109 9.43753 13.0983C9.89966 13.0983 10.3279 12.9933 10.7259 12.7821C11.1176 12.577 11.4567 12.2843 11.7167 11.9266C12.2829 11.1498 12.6866 10.2666 12.9035 9.33009C13.0155 8.83762 13.1019 8.36966 13.1556 7.92971C13.2127 7.48742 13.2372 7.06963 13.2372 6.67286C13.2372 5.21762 12.7751 4.0833 11.8567 3.27108C10.9336 2.45885 9.73161 2.05508 8.25303 2.05508C6.5714 2.05508 5.16517 2.59889 4.03903 3.69003C2.91172 4.77766 2.34456 6.16055 2.34456 7.83751C2.34456 8.20745 2.40057 8.56455 2.50677 8.90998C2.61063 9.25424 2.72383 9.52848 2.84636 9.73154C2.96773 9.93109 3.0821 10.126 3.18596 10.3057C3.29099 10.4854 3.34584 10.6138 3.34584 10.6908C3.34584 10.9265 3.28399 11.2335 3.15912 11.6127C3.02958 11.992 2.87671 12.1811 2.69232 12.1811C2.67482 12.1811 2.60246 12.1682 2.47643 12.1414C2.03993 12.0111 1.64574 11.7675 1.33394 11.4353C1.00303 11.0911 0.741877 10.6861 0.564897 10.2427C0.388423 9.8008 0.250971 9.34432 0.154117 8.87847C0.0494748 8.43767 -0.00223774 7.98597 7.42148e-05 7.53293Z" fill="#1C64A7"/>
</svg>
