<svg width="24" height="24" viewBox="0 0 24 24" fill="none" xmlns="http://www.w3.org/2000/svg">
<path d="M4.73313 10.0771C4.76956 9.64755 4.97565 9.2467 5.31034 8.95443C5.64504 8.66216 6.08378 8.49991 6.5392 8.5H17.4608C17.9162 8.49991 18.355 8.66216 18.6897 8.95443C19.0244 9.2467 19.2304 9.64755 19.2669 10.0771L19.9942 18.6486C20.0142 18.8845 19.9824 19.1217 19.9007 19.3454C19.8191 19.569 19.6894 19.7743 19.5199 19.9482C19.3503 20.1221 19.1445 20.2609 18.9155 20.3559C18.6864 20.4509 18.4391 20.4999 18.189 20.5H5.81098C5.56092 20.4999 5.31358 20.4509 5.08454 20.3559C4.8555 20.2609 4.64972 20.1221 4.48015 19.9482C4.31058 19.7743 4.18089 19.569 4.09925 19.3454C4.01762 19.1217 3.9858 18.8845 4.00581 18.6486L4.73313 10.0771V10.0771Z" stroke="white" stroke-width="1.5" stroke-linecap="round" stroke-linejoin="round"/>
<path d="M15 10.5V6.61111C15 5.78599 14.6839 4.99467 14.1213 4.41122C13.5587 3.82778 12.7956 3.5 12 3.5C11.2044 3.5 10.4413 3.82778 9.87868 4.41122C9.31607 4.99467 9 5.78599 9 6.61111V10.5" stroke="white" stroke-width="1.5" stroke-linecap="round" stroke-linejoin="round"/>
</svg>
