<svg width="18" height="20" viewBox="0 0 18 20" fill="none" xmlns="http://www.w3.org/2000/svg">
<path d="M1.73313 8.07714C1.76956 7.64755 1.97565 7.2467 2.31034 6.95443C2.64504 6.66216 3.08378 6.49991 3.5392 6.5H14.4608C14.9162 6.49991 15.355 6.66216 15.6897 6.95443C16.0244 7.2467 16.2304 7.64755 16.2669 8.07714L16.9942 16.6486C17.0142 16.8845 16.9824 17.1217 16.9007 17.3454C16.8191 17.569 16.6894 17.7743 16.5199 17.9482C16.3503 18.1221 16.1445 18.2609 15.9155 18.3559C15.6864 18.4509 15.4391 18.4999 15.189 18.5H2.81098C2.56092 18.4999 2.31358 18.4509 2.08454 18.3559C1.8555 18.2609 1.64972 18.1221 1.48015 17.9482C1.31058 17.7743 1.18089 17.569 1.09925 17.3454C1.01762 17.1217 0.985802 16.8845 1.00581 16.6486L1.73313 8.07714V8.07714Z" stroke="#0E3457" stroke-width="1.5" stroke-linecap="round" stroke-linejoin="round"/>
<path d="M12 8.5V4.61111C12 3.78599 11.6839 2.99467 11.1213 2.41122C10.5587 1.82778 9.79565 1.5 9 1.5C8.20435 1.5 7.44129 1.82778 6.87868 2.41122C6.31607 2.99467 6 3.78599 6 4.61111V8.5" stroke="#0E3457" stroke-width="1.5" stroke-linecap="round" stroke-linejoin="round"/>
</svg>
